<?xml version="1.0" standalone="no"?>
<!DOCTYPE svg PUBLIC "-//W3C//DTD SVG 20010904//EN"
 "http://www.w3.org/TR/2001/REC-SVG-20010904/DTD/svg10.dtd">
<svg version="1.0" xmlns="http://www.w3.org/2000/svg"
 width="32.000000pt" height="32.000000pt" viewBox="0 0 32.000000 32.000000"
 preserveAspectRatio="xMidYMid meet">
<metadata>
Created by potrace 1.10, written by Peter Selinger 2001-2011
</metadata>
<g transform="translate(0.000000,32.000000) scale(0.100000,-0.100000)"
fill="#000000" stroke="none">
<path d="M43 286 c4 -10 1 -13 -9 -9 -12 4 -14 -14 -14 -117 0 -103 2 -121 14
-117 10 4 13 1 9 -9 -4 -12 14 -14 117 -14 103 0 121 2 117 14 -4 10 -1 13 9
9 12 -4 14 14 14 117 0 103 -2 121 -14 117 -10 -4 -13 -1 -9 9 4 12 -14 14
-117 14 -103 0 -121 -2 -117 -14z m167 -44 l22 -18 -27 -32 -27 -32 27 -32 27
-32 -22 -18 c-35 -29 -77 -23 -116 16 -46 46 -46 86 0 132 39 39 81 45 116 16z
m40 -79 c0 -12 -3 -28 -6 -37 -5 -13 -9 -12 -26 9 -19 24 -19 25 -1 49 20 26
33 18 33 -21z"/>
<path d="M99 221 c-20 -20 -29 -39 -29 -61 0 -66 85 -113 136 -75 17 13 16 13
-12 3 -17 -6 -43 -8 -58 -4 l-28 7 27 21 c25 20 27 20 48 2 l22 -18 -22 24
c-22 23 -23 23 -43 5 -26 -24 -39 -11 -15 15 17 19 17 21 0 40 -23 26 -11 39
14 16 19 -17 21 -17 51 5 29 22 30 25 14 36 -30 22 -73 15 -105 -16z m95 13
c13 -5 12 -10 -9 -26 -25 -19 -27 -19 -45 -3 -11 10 -17 22 -14 26 6 10 45 12
68 3z m-79 -94 c-17 -19 -20 -19 -28 -5 -5 9 -6 28 -2 42 l6 26 21 -21 c21
-21 21 -22 3 -42z"/>
<path d="M150 160 c0 -5 5 -10 10 -10 6 0 10 5 10 10 0 6 -4 10 -10 10 -5 0
-10 -4 -10 -10z"/>
</g>
</svg>
